<?xml version="1.0" standalone="no"?>
<!DOCTYPE svg PUBLIC "-//W3C//DTD SVG 20010904//EN"
 "http://www.w3.org/TR/2001/REC-SVG-20010904/DTD/svg10.dtd">
<svg version="1.0" xmlns="http://www.w3.org/2000/svg"
 width="1000.000000pt" height="416.000000pt" viewBox="0 0 1000.000000 416.000000"
 preserveAspectRatio="xMidYMid meet">

<g transform="translate(0.000000,416.000000) scale(0.100000,-0.100000)"
fill="#000000" stroke="none">
<path d="M4865 4133 c-76 -17 -117 -38 -154 -78 -59 -64 -74 -122 -76 -290 -1
-125 -3 -144 -23 -175 -28 -44 -36 -89 -28 -147 6 -47 43 -123 59 -123 5 0 6
-23 2 -55 -3 -30 -6 -95 -6 -144 0 -141 41 -211 138 -236 57 -14 69 -40 26
-56 -35 -13 -71 -46 -90 -83 -36 -69 -121 -348 -192 -633 -37 -146 -56 -189
-90 -202 -14 -5 -116 -14 -226 -20 -230 -13 -356 -34 -333 -56 3 -3 34 -1 69
5 35 5 90 10 122 10 57 0 57 0 57 -30 l0 -30 -133 0 -132 0 -53 412 c-30 227
-58 443 -64 481 l-11 67 -233 0 c-130 0 -234 -4 -234 -9 0 -10 59 -473 100
-793 17 -125 30 -236 30 -247 0 -20 -5 -21 -135 -21 l-135 0 0 -75 0 -75 120
0 120 0 0 -765 c0 -758 0 -765 20 -765 20 0 20 7 20 765 l0 765 258 -1 c203 0
253 -3 237 -12 -10 -7 -39 -31 -64 -53 l-45 -42 66 -73 c36 -41 102 -114 147
-164 45 -49 233 -264 419 -476 l337 -387 27 14 c40 21 41 19 12 -37 l-26 -52
-19 33 c-11 18 -57 74 -102 124 -45 50 -188 213 -316 361 -460 529 -545 624
-554 618 -5 -3 -7 -31 -5 -63 10 -134 88 -233 621 -782 143 -148 266 -268 273
-268 8 0 -1 -31 -27 -87 -21 -49 -39 -101 -39 -116 0 -24 2 -26 19 -17 11 5
23 20 27 32 4 13 22 56 41 97 31 69 35 74 50 58 15 -15 14 -21 -15 -84 -22
-47 -28 -71 -21 -78 15 -14 49 31 111 149 l52 98 23 -26 c22 -26 43 -28 43 -4
0 5 -14 28 -31 50 -17 21 -30 40 -28 42 2 2 17 10 32 18 l28 14 -56 77 c-90
126 -326 414 -528 647 -36 41 -64 76 -62 79 2 2 66 -5 142 -15 95 -13 202 -19
343 -19 204 0 205 0 262 28 55 27 90 62 121 123 37 71 77 302 77 441 0 33 4
63 9 69 21 21 41 122 41 203 0 84 -24 441 -36 531 -12 93 -44 168 -95 224
l-49 53 58 12 c82 17 122 56 122 120 0 41 -20 111 -32 111 -4 0 -8 15 -8 34 0
57 -17 50 -23 -9 -3 -30 -17 -80 -31 -111 -29 -62 -29 -64 -18 -64 11 0 50 65
58 94 9 39 21 31 28 -19 7 -44 -2 -74 -30 -102 -13 -14 -59 -26 -169 -46 l-70
-13 0 -34 c0 -19 4 -58 8 -86 l7 -51 -42 -7 c-24 -4 -53 -9 -64 -12 -20 -5
-22 -1 -29 70 -3 41 -4 84 0 96 4 12 31 33 63 49 31 16 69 42 84 58 36 38 91
143 118 226 13 37 28 67 34 67 28 0 109 63 136 107 34 53 40 115 14 151 -14
21 -13 26 30 95 108 173 102 274 -23 397 -69 68 -157 114 -256 135 -67 14
-157 18 -200 8z m285 -425 c11 -24 31 -55 45 -70 l25 -27 -46 -163 c-91 -326
-117 -393 -179 -465 -95 -112 -281 -88 -316 40 -17 61 -5 230 31 452 17 105
33 198 36 208 3 10 15 17 32 17 15 0 42 4 60 9 27 8 36 7 53 -10 34 -34 30
-99 -22 -292 -42 -161 -45 -181 -27 -175 26 9 107 312 108 398 0 26 -8 58 -18
75 l-18 29 56 37 c54 34 129 111 131 133 1 6 7 -26 15 -71 7 -45 23 -102 34
-125z m-463 -113 c7 -19 -29 -245 -39 -245 -11 0 -35 51 -42 92 -12 65 24 168
60 168 8 0 17 -7 21 -15z m608 -119 c32 -48 -17 -141 -96 -185 -38 -22 -41
-22 -35 -5 3 11 15 60 27 109 11 50 23 93 26 98 11 17 63 6 78 -17z m-170
-688 c63 -64 82 -128 101 -331 9 -95 17 -253 18 -352 1 -175 0 -181 -24 -224
-33 -58 -71 -86 -120 -86 -89 0 -119 72 -166 395 -18 128 -32 235 -30 237 4 5
140 21 144 18 2 -2 19 -70 37 -152 18 -81 38 -159 43 -173 26 -62 9 77 -34
285 -87 423 -87 425 -43 425 24 0 42 -11 74 -42z m-281 -160 c10 -95 24 -212
31 -260 12 -81 11 -102 -14 -292 -15 -113 -29 -207 -31 -209 -3 -2 -46 -7 -96
-10 -82 -5 -91 -4 -88 11 2 9 11 62 20 117 9 55 34 198 55 319 38 214 49 308
29 258 -18 -44 -80 -352 -120 -597 -22 -137 -43 -258 -46 -267 -5 -17 -41 -18
-580 -18 -520 0 -574 2 -574 16 0 9 -18 154 -40 323 -68 510 -90 680 -90 686
0 3 72 5 160 5 121 0 160 -3 160 -12 0 -7 18 -152 40 -323 55 -424 80 -620 80
-622 0 -2 133 -3 295 -3 288 0 295 0 295 20 0 19 -7 20 -90 20 l-90 0 0 29 c0
35 10 38 158 40 172 3 186 17 249 262 92 359 167 602 196 640 14 17 47 38 62
39 6 0 18 -74 29 -172z m-1144 70 c0 -7 9 -83 21 -168 42 -322 49 -379 69
-535 11 -88 22 -170 25 -183 5 -20 2 -23 -17 -20 -22 3 -24 11 -40 133 -26
196 -88 684 -95 738 -5 43 -4 47 16 47 11 0 21 -6 21 -12z m1323 -113 c23
-103 22 -115 -7 -115 -13 0 -44 -3 -69 -6 -53 -8 -52 -8 -62 108 l-7 77 38 4
c98 10 89 15 107 -68z m-85 -610 c11 -55 19 -101 17 -103 -1 -1 -20 -4 -43 -6
-27 -3 -42 0 -42 7 0 7 7 68 17 137 19 137 17 139 51 -35z"/>
<path d="M5037 3663 c-19 -18 -2 -28 48 -29 56 -2 64 3 43 24 -13 13 -80 17
-91 5z"/>
<path d="M4805 3507 c-23 -35 -3 -77 22 -44 19 23 22 46 8 57 -11 9 -17 6 -30
-13z"/>
<path d="M5021 3467 c-14 -14 -14 -67 0 -67 15 0 38 31 39 51 0 21 -24 31 -39
16z"/>
<path d="M4770 3124 c0 -3 5 -14 10 -25 13 -23 72 -26 90 -4 11 13 7 15 -28
15 -23 0 -44 5 -47 10 -7 11 -25 14 -25 4z"/>
<path d="M3472 2398 c-17 -17 -14 -79 4 -103 35 -46 73 40 39 91 -17 27 -26
29 -43 12z"/>
<path d="M1022 4074 c-47 -24 -92 -68 -92 -92 0 -5 -25 -10 -56 -11 -161 -3
-314 -101 -386 -248 -30 -61 -33 -77 -37 -175 -3 -112 13 -193 60 -293 l20
-42 -45 -65 c-135 -203 -119 -441 35 -519 l56 -29 -8 -47 c-4 -27 -10 -143
-13 -259 -6 -207 -6 -213 -42 -325 -69 -220 -85 -285 -91 -374 -12 -196 73
-366 217 -434 48 -23 68 -26 160 -26 58 0 157 4 220 8 133 10 229 -5 314 -49
172 -90 250 -221 447 -758 l43 -118 48 4 47 5 11 -51 c19 -82 21 -86 37 -86
15 0 14 22 -4 98 -4 17 10 7 51 -36 88 -93 260 -172 295 -137 21 21 3 38 -92
87 -89 47 -192 133 -167 141 8 3 37 8 63 12 48 6 48 7 42 38 -4 18 -51 164
-106 326 -91 271 -110 340 -79 280 10 -18 93 -135 105 -147 2 -2 24 10 50 28
26 18 47 30 49 28 1 -1 17 -23 36 -48 19 -25 35 -46 35 -48 1 -1 10 0 19 4 16
6 16 8 0 32 -16 24 -16 25 2 17 60 -24 127 -45 163 -51 l41 -7 2 -351 c3 -325
4 -351 21 -354 16 -3 17 19 17 347 l0 351 59 0 c37 0 63 5 70 14 22 26 2 43
-62 52 l-62 9 -3 378 -2 377 125 0 125 0 0 75 0 75 -55 0 c-34 0 -55 4 -55 11
0 6 7 41 15 78 9 36 55 263 103 504 l87 437 -370 0 c-203 0 -375 -4 -380 -8
-6 -4 -42 -165 -80 -359 -38 -194 -71 -350 -73 -348 -2 2 1 61 8 132 6 70 15
187 19 258 7 124 5 137 -20 147 -7 3 9 83 38 188 15 57 59 106 188 216 66 55
43 64 -31 13 -139 -96 -192 -176 -215 -324 -6 -44 -13 -81 -13 -82 -3 -3 -145
53 -152 59 -8 9 22 150 67 316 21 79 37 148 33 153 -13 21 -24 5 -45 -63 -68
-229 -121 -496 -148 -744 l-17 -158 -17 49 c-75 208 -125 321 -180 403 l-36
52 32 52 c30 48 32 57 32 142 0 113 -25 170 -101 231 l-51 40 -5 165 c-5 163
-25 284 -62 372 -13 31 -13 34 18 70 40 46 58 104 57 180 -2 182 -171 291
-329 212z m203 -439 c46 -99 48 -112 19 -119 -34 -9 -92 -63 -115 -108 -27
-53 -34 -123 -20 -200 24 -124 49 -120 33 5 -17 133 5 192 88 234 34 18 46 20
51 10 4 -6 13 -57 19 -111 21 -168 -4 -374 -54 -449 -13 -19 -41 -39 -69 -51
-45 -19 -49 -19 -100 -3 -107 34 -185 119 -292 316 l-66 122 56 60 c76 83 91
114 119 250 5 21 21 34 78 61 40 20 93 54 118 76 l45 41 29 -32 c15 -18 43
-63 61 -102z m-475 -492 c30 -64 57 -121 59 -126 6 -17 -80 0 -108 21 -50 37
-73 82 -68 135 4 46 28 87 51 87 6 0 36 -53 66 -117z m433 -433 c76 -19 153
-57 178 -86 16 -20 -6 -43 -84 -85 -57 -31 -69 -34 -147 -34 -78 0 -90 3 -148
34 -56 31 -190 156 -179 167 11 12 102 22 198 23 75 1 128 -5 182 -19z m-198
-211 c123 -58 255 -41 372 48 24 18 45 33 48 33 3 0 23 -27 44 -60 41 -63 90
-175 181 -413 29 -76 56 -134 60 -130 4 4 10 60 14 123 7 141 21 267 42 381
l16 86 95 -36 95 -36 -6 -95 c-14 -220 -32 -421 -52 -577 l-5 -43 -244 0 -244
0 -19 25 c-44 56 -139 69 -251 35 -36 -11 -66 -18 -67 -17 -5 6 -24 150 -20
155 3 2 45 7 93 9 129 8 238 -13 388 -72 l20 -8 -20 23 c-58 67 -270 110 -439
89 -110 -14 -310 -72 -340 -100 -22 -20 6 -16 113 17 158 48 157 48 164 -29 3
-34 9 -70 12 -79 7 -18 -51 -44 -182 -78 -143 -37 -202 -26 -236 47 -19 43
-22 69 -25 248 -2 110 1 277 5 370 10 198 17 215 104 259 l51 25 82 -84 c63
-65 97 -91 151 -116z m1814 159 c0 -7 -44 -229 -97 -493 l-97 -480 -883 -3
c-730 -2 -882 0 -882 11 0 19 356 137 412 137 42 0 88 -21 88 -41 0 -5 -40 -9
-90 -9 -83 0 -90 -1 -90 -20 0 -20 7 -20 384 -20 330 0 385 2 396 15 7 8 53
218 103 465 l90 450 334 0 c260 0 333 -3 332 -12z m-329 -1499 l0 -370 -22 6
c-30 9 -168 73 -168 78 0 2 20 14 45 27 25 13 45 27 45 33 0 27 -222 375 -331
519 l-60 78 246 0 245 0 0 -371z"/>
<path d="M931 3436 c-38 -20 -69 -55 -71 -78 0 -4 25 6 56 23 31 16 71 29 90
29 38 0 47 22 15 40 -27 14 -40 12 -90 -14z"/>
<path d="M1174 3336 c-10 -27 5 -68 24 -64 24 5 24 71 -1 76 -9 2 -20 -4 -23
-12z"/>
<path d="M967 3313 c-12 -12 -7 -60 8 -73 20 -16 35 -4 35 29 0 36 -25 62 -43
44z"/>
<path d="M1093 3016 c6 -18 57 -29 83 -17 38 17 28 26 -31 27 -32 0 -54 -4
-52 -10z"/>
<path d="M1390 1904 c25 -14 55 -37 67 -52 16 -19 22 -22 23 -11 0 29 -78 89
-117 89 -11 0 1 -11 27 -26z"/>
<path d="M1345 1877 c11 -7 35 -27 53 -44 41 -40 45 -41 30 -8 -12 27 -66 65
-89 64 -9 0 -7 -5 6 -12z"/>
<path d="M2376 2349 c-30 -24 -34 -59 -8 -82 27 -24 58 -21 81 9 26 33 26 49
1 74 -25 25 -41 25 -74 -1z"/>
<path d="M8832 3826 c3 -25 15 -62 26 -84 l20 -39 -56 -18 c-148 -46 -222
-126 -222 -237 0 -111 53 -223 178 -377 45 -55 46 -57 44 -121 -5 -111 53
-189 142 -192 34 -1 36 -4 52 -52 31 -95 89 -201 134 -247 l46 -46 -61 -12
c-81 -17 -209 -79 -416 -202 -403 -238 -544 -285 -904 -298 -217 -8 -249 -16
-304 -75 -35 -37 -23 -40 27 -6 58 39 119 50 272 50 l130 0 0 -72 c0 -40 4
-78 8 -85 11 -17 224 -19 337 -3 163 22 305 77 434 167 55 38 62 41 47 18 -9
-14 -38 -63 -65 -108 -26 -45 -69 -118 -95 -162 l-48 -80 -69 3 c-80 4 -129
-15 -192 -73 -25 -23 -45 -34 -56 -30 -35 11 -376 7 -406 -5 -74 -29 -96 -94
-57 -170 21 -41 161 -229 317 -425 61 -77 146 -184 188 -238 43 -53 80 -97 83
-97 3 0 23 13 44 30 21 17 40 30 43 30 9 0 27 -71 27 -103 0 -40 -26 -87 -68
-124 -28 -24 -34 -35 -25 -44 8 -8 18 -7 40 6 55 33 100 127 86 183 -8 32 2
27 27 -13 22 -35 43 -44 55 -25 4 6 -19 42 -50 80 -31 39 -53 70 -50 70 3 0
-11 26 -31 58 -50 77 -168 272 -183 300 -11 20 -9 27 15 55 l26 31 -89 42
c-50 23 -94 47 -98 54 -9 14 22 7 69 -17 61 -31 234 -101 301 -121 203 -61
402 -69 508 -20 66 31 144 105 204 193 94 139 241 475 294 670 67 248 32 423
-102 512 -40 26 -40 27 -17 36 83 30 142 158 164 355 5 51 10 62 25 62 24 0
86 55 106 94 24 46 21 131 -6 167 l-22 30 40 52 c65 85 103 176 102 248 0 120
-83 229 -201 265 -43 13 -60 23 -64 38 -11 45 -67 105 -124 133 -51 25 -67 28
-152 27 -52 -1 -128 -9 -168 -18 -104 -23 -189 -21 -231 5 l-34 20 5 -45z
m231 -500 c87 -66 209 -85 307 -48 l45 18 25 -30 c13 -16 43 -37 66 -48 l42
-18 -4 -128 c-10 -279 -52 -526 -100 -590 -69 -90 -203 -80 -290 21 -46 54
-105 177 -139 292 -29 97 -85 355 -85 394 0 13 14 39 31 58 17 20 38 51 47 69
8 19 17 34 20 34 2 0 18 -11 35 -24z m586 -272 c43 -54 17 -160 -48 -198 l-33
-19 7 109 c4 60 8 115 10 122 7 21 43 13 64 -14z m-724 -55 c4 -6 20 -56 35
-111 l28 -100 -35 5 c-43 7 -59 20 -84 68 -23 46 -25 112 -3 133 18 18 50 21
59 5z m157 -967 c-88 -180 -167 -344 -176 -364 -17 -44 -15 -43 -147 -21 l-99
16 17 26 c85 128 301 501 289 501 -2 0 -27 -36 -56 -80 -60 -91 -112 -142
-207 -204 -101 -64 -182 -103 -275 -130 -90 -25 -245 -52 -254 -43 -3 3 -9 41
-13 85 l-7 80 111 37 c118 39 279 120 465 232 148 89 254 146 327 173 62 24
176 41 182 27 2 -5 -69 -156 -157 -335z m276 312 c61 -30 96 -69 131 -144 21
-46 25 -69 24 -140 -1 -140 -66 -360 -178 -599 l-54 -116 -53 3 c-64 3 -339
40 -346 46 -2 3 3 30 12 60 19 66 18 65 180 41 55 -8 100 -14 102 -13 6 7 183
532 180 535 -4 5 -116 -249 -157 -355 -17 -45 -34 -82 -37 -82 -17 0 -236 41
-239 44 -5 5 80 187 208 446 53 108 107 219 119 248 26 60 35 63 108 26z
m-1236 -466 c3 -7 6 -43 7 -80 l2 -68 -75 0 -74 0 -4 68 c-2 37 -3 68 -2 70 2
4 91 19 120 21 12 0 24 -5 26 -11z m722 -354 c35 -6 38 -8 33 -33 -3 -14 -13
-43 -21 -63 -14 -33 -20 -37 -44 -33 -15 2 -53 7 -84 10 -63 7 -66 12 -44 66
7 19 16 42 20 53 7 19 10 19 140 0z m-273 -16 c49 -6 89 -15 89 -19 0 -3 -7
-23 -16 -44 -10 -25 -20 -35 -30 -31 -8 3 -64 9 -124 12 -107 7 -136 17 -85
30 13 3 29 12 36 20 19 23 -20 17 -70 -11 -54 -31 -88 -34 -51 -4 37 30 101
59 134 59 16 0 69 -5 117 -12z"/>
<path d="M9343 3093 c-7 -2 -13 -11 -13 -20 0 -12 8 -13 43 -8 49 8 51 10 42
24 -6 11 -50 14 -72 4z"/>
<path d="M9077 3053 c-16 -16 -4 -23 38 -23 33 0 45 4 45 15 0 11 -11 15 -38
15 -21 0 -42 -3 -45 -7z"/>
<path d="M9250 2975 c0 -30 28 -224 35 -244 4 -10 9 -11 16 -4 16 16 -20 273
-38 273 -7 0 -13 -11 -13 -25z"/>
<path d="M9372 2958 c-16 -16 -15 -40 1 -62 12 -17 15 -17 29 -2 17 17 14 49
-6 65 -9 7 -16 7 -24 -1z"/>
<path d="M9134 2927 c-10 -27 0 -72 18 -75 25 -5 39 29 25 58 -15 29 -35 37
-43 17z"/>
<path d="M9322 2659 c-13 -5 -34 -6 -47 -3 -33 8 -43 -15 -15 -38 12 -10 31
-18 42 -18 33 0 78 29 78 50 0 22 -20 25 -58 9z"/>
<path d="M5150 3185 c0 -14 -11 -53 -25 -87 -29 -71 -31 -85 -10 -68 33 28 72
180 45 180 -5 0 -10 -11 -10 -25z"/>
<path d="M5188 3200 c-4 -8 -9 -35 -13 -60 -3 -25 -16 -69 -30 -97 -13 -29
-20 -55 -15 -58 11 -7 45 50 60 100 12 40 10 143 -2 115z"/>
<path d="M2027 3128 c-91 -98 -150 -179 -137 -192 6 -6 13 -6 19 -1 35 40 198
233 204 243 6 8 2 12 -10 12 -9 0 -44 -28 -76 -62z"/>
<path d="M2110 3069 c-79 -53 -167 -135 -157 -145 10 -11 35 5 146 94 84 68
105 92 82 92 -5 0 -37 -19 -71 -41z"/>
<path d="M2155 3034 c-84 -50 -155 -106 -155 -121 0 -19 21 -16 50 8 14 11 62
44 108 74 77 51 99 75 69 75 -7 0 -40 -16 -72 -36z"/>
<path d="M6320 2749 c0 -6 14 -59 30 -118 17 -58 71 -254 120 -436 50 -181 99
-359 110 -395 11 -36 22 -77 26 -92 l6 -28 -221 0 -221 0 0 -76 0 -75 113 3
112 3 3 -768 c2 -759 2 -767 22 -767 20 0 20 7 20 768 l0 768 773 0 772 -1 3
-22 c5 -33 42 -31 42 1 0 23 3 24 73 24 140 -1 127 -8 127 72 l0 70 -282 0
-283 1 59 24 c113 47 115 71 1 30 -43 -16 -75 -33 -75 -41 0 -10 -13 -14 -40
-14 -22 0 -40 2 -40 5 0 2 29 20 65 40 60 34 81 55 54 55 -17 0 -110 -48 -146
-76 l-32 -24 -429 0 -430 0 -10 38 c-10 38 -38 139 -186 677 -47 170 -86 313
-86 317 0 5 58 8 128 8 l129 0 10 -42 c6 -24 61 -225 123 -448 62 -223 114
-414 117 -425 3 -11 9 -35 15 -53 l10 -33 261 2 c144 1 272 5 285 10 56 21 3
29 -201 29 -117 0 -218 4 -226 9 -13 8 -84 255 -237 819 l-47 172 -208 0
c-146 0 -209 -3 -209 -11z m465 -311 c42 -156 101 -368 130 -473 30 -104 51
-193 49 -197 -12 -20 -34 -5 -44 30 -50 175 -250 904 -250 913 0 5 8 9 18 9
16 0 31 -43 97 -282z"/>
<path d="M5394 2649 c-17 -5 -50 -26 -74 -47 l-42 -37 16 -205 c27 -340 22
-453 -24 -520 -17 -24 -19 -50 -33 -335 -2 -36 1 -41 38 -62 46 -26 103 -29
144 -9 135 70 245 406 244 746 0 115 -4 161 -21 222 -36 133 -95 221 -165 247
-32 13 -40 13 -83 0z"/>
<path d="M369 2537 c-152 -43 -276 -224 -330 -482 -19 -88 -16 -314 5 -400 49
-202 149 -301 332 -329 l41 -6 -14 53 c-20 74 -20 244 1 352 10 49 38 148 63
220 l45 130 5 226 c4 151 2 228 -5 233 -22 13 -99 15 -143 3z"/>
<path d="M6548 2414 c-10 -21 -9 -31 3 -52 8 -15 23 -28 33 -30 24 -5 56 26
56 54 0 53 -71 75 -92 28z"/>
<path d="M9590 2249 c-19 -6 -36 -12 -38 -13 -1 -2 5 -32 14 -67 51 -198 -64
-580 -287 -955 l-71 -119 28 -23 c24 -21 26 -25 13 -48 -12 -23 -16 -25 -68
-18 -31 3 -58 8 -60 10 -2 2 -22 -10 -45 -25 -96 -66 -227 -85 -396 -56 -56 9
-123 23 -148 30 -41 13 -48 13 -64 -2 -30 -27 -23 -76 16 -111 56 -49 219 -99
336 -102 74 -3 74 5 -10 -230 l-77 -215 -51 -7 c-112 -17 -201 -69 -238 -140
-13 -25 -13 -28 0 -28 8 0 22 13 32 29 24 41 85 77 165 96 38 10 72 15 75 13
2 -3 -2 -22 -9 -44 -25 -72 -29 -94 -14 -94 8 0 25 29 39 67 l25 68 94 0 c80
-1 101 -4 144 -26 28 -14 60 -41 73 -60 39 -57 57 -48 27 14 -30 63 -122 106
-246 114 l-76 6 57 156 c32 86 65 181 75 211 l17 55 182 0 c211 0 280 14 315
64 12 16 21 37 21 46 0 32 -39 72 -102 105 -35 18 -65 34 -66 36 -2 1 4 14 15
28 16 22 25 25 79 26 80 0 147 21 220 68 209 136 373 431 390 701 12 193 -58
356 -179 418 -58 29 -151 39 -207 22z"/>
<path d="M7574 1822 c-50 -27 -86 -60 -79 -71 3 -6 26 5 54 27 27 20 57 42 67
49 31 19 -6 15 -42 -5z"/>
<path d="M7615 1801 c-50 -22 -105 -68 -105 -87 0 -9 16 -3 48 20 26 18 62 41
80 50 17 9 32 21 32 26 0 14 -9 12 -55 -9z"/>
<path d="M5170 1294 c-33 -49 -101 -99 -163 -121 -53 -18 -235 -24 -447 -14
l-85 4 -3 -35 c-7 -82 100 -142 276 -155 l82 -6 0 -173 c0 -167 1 -174 20
-174 19 0 20 8 22 172 l3 172 30 2 c17 1 69 5 116 8 154 9 261 46 317 111 58
65 39 139 -50 197 -79 53 -89 54 -118 12z"/>
<path d="M383 1249 c-85 -42 -116 -116 -78 -188 37 -72 161 -141 318 -177 l77
-18 0 -257 0 -256 -46 -13 c-63 -18 -157 -89 -188 -143 -30 -50 -31 -57 -12
-57 8 0 25 19 39 43 28 47 89 95 155 120 23 9 45 17 47 17 3 0 5 -40 5 -90 0
-83 1 -90 20 -90 19 0 20 7 20 96 l0 96 56 -4 c80 -7 107 -36 112 -123 6 -91
32 -84 32 8 0 90 -60 150 -152 151 l-48 1 0 248 0 247 93 -6 c184 -12 349 36
431 127 57 62 61 76 29 92 -70 35 -120 40 -281 31 -276 -15 -307 -14 -385 23
-44 21 -88 52 -122 88 -30 30 -60 55 -67 55 -7 0 -32 -9 -55 -21z"/>
<path d="M7899 1014 c-30 -36 -359 -573 -464 -757 l-27 -47 44 -1 c23 -1 54
-4 68 -8 24 -7 24 -8 -20 -37 -93 -63 -198 -82 -277 -49 -20 8 -38 13 -40 11
-14 -13 14 -47 53 -67 59 -28 129 -22 213 19 l60 29 -25 -42 c-20 -35 -22 -44
-10 -48 10 -4 29 18 62 71 26 42 64 95 84 117 20 22 102 124 183 226 80 102
179 226 220 274 l74 89 -89 118 c-49 65 -91 118 -92 118 -2 0 -10 -7 -17 -16z"/>
<path d="M1085 807 c-3 -6 -4 -190 -3 -407 3 -367 4 -395 21 -398 16 -3 17 21
17 407 0 362 -2 411 -15 411 -9 0 -18 -6 -20 -13z"/>
<path d="M7997 614 c-4 -4 -7 -144 -7 -311 0 -297 0 -303 20 -303 20 0 20 5
18 307 -3 291 -7 331 -31 307z"/>
<path d="M4842 218 c-7 -7 -12 -31 -12 -55 0 -36 3 -43 20 -43 17 0 20 7 20
40 l0 40 58 0 c81 0 127 -15 155 -52 33 -42 52 -34 29 12 -25 52 -70 70 -172
70 -54 0 -91 -5 -98 -12z"/>
<path d="M408 91 c-29 -26 -32 -32 -23 -57 14 -39 65 -46 89 -12 22 31 20 75
-3 88 -27 14 -26 14 -63 -19z"/>
<path d="M677 82 c-34 -37 -16 -86 29 -80 36 4 65 49 48 75 -16 25 -57 28 -77
5z"/>
<path d="M8418 89 c-18 -10 -23 -44 -12 -73 9 -23 50 -19 68 6 20 28 20 43 0
62 -18 18 -32 20 -56 5z"/>
<path d="M9069 87 c-17 -9 -24 -21 -24 -41 0 -40 26 -54 59 -33 52 34 20 101
-35 74z"/>
<path d="M883 78 c-30 -39 -24 -78 13 -78 27 0 58 39 52 67 -4 22 -50 30 -65
11z"/>
<path d="M4826 71 c-25 -28 -18 -65 15 -69 31 -4 62 28 57 60 -4 31 -47 36
-72 9z"/>
<path d="M8652 78 c-28 -28 -2 -88 32 -75 8 3 22 17 32 32 13 20 14 28 4 40
-15 18 -51 20 -68 3z"/>
<path d="M5092 72 c-22 -14 -11 -66 14 -70 28 -4 56 24 52 52 -3 23 -42 33
-66 18z"/>
</g>
</svg>
