<?xml version="1.0" standalone="no"?>
<!DOCTYPE svg PUBLIC "-//W3C//DTD SVG 20010904//EN"
 "http://www.w3.org/TR/2001/REC-SVG-20010904/DTD/svg10.dtd">
<svg version="1.0" xmlns="http://www.w3.org/2000/svg"
 width="750.000000pt" height="369.000000pt" viewBox="0 0 750.000000 369.000000"
 preserveAspectRatio="xMidYMid meet">

<g transform="translate(0.000000,369.000000) scale(0.100000,-0.100000)"
fill="#000000" stroke="none">
<path d="M6684 3677 c-87 -23 -151 -67 -189 -132 -10 -16 -15 -15 -65 18 -132
87 -282 87 -457 0 -81 -40 -93 -49 -94 -72 0 -14 -3 -20 -6 -13 -10 25 -20 1
-17 -40 3 -24 16 -182 29 -352 14 -171 27 -311 28 -313 2 -1 124 -21 273 -43
315 -47 317 -48 309 -60 -11 -18 8 -11 31 11 27 25 69 28 92 5 23 -22 10 -30
-63 -34 -48 -3 -65 -8 -65 -19 0 -12 13 -13 73 -8 111 10 114 13 71 64 -24 29
-30 31 -82 29 -32 -1 -175 16 -320 37 -292 43 -283 38 -169 96 172 88 344 74
459 -39 21 -19 41 -33 45 -29 5 6 -48 610 -62 703 -7 40 26 89 86 130 83 56
223 68 384 35 50 -10 92 -17 94 -15 35 32 -288 65 -385 41z m-376 -81 c29 -8
71 -25 95 -39 81 -48 78 -37 114 -365 18 -163 32 -312 33 -330 l0 -32 -54 36
c-140 92 -315 85 -480 -20 -32 -20 -59 -36 -61 -34 -8 10 -51 685 -44 694 16
20 134 73 195 88 77 19 136 19 202 2z m-421 -228 c-2 -13 -4 -3 -4 22 0 25 2
35 4 23 2 -13 2 -33 0 -45z m10 -120 c-2 -13 -4 -3 -4 22 0 25 2 35 4 23 2
-13 2 -33 0 -45z m10 -115 c-3 -10 -5 -2 -5 17 0 19 2 27 5 18 2 -10 2 -26 0
-35z m10 -125 c-2 -13 -4 -3 -4 22 0 25 2 35 4 23 2 -13 2 -33 0 -45z m10
-115 c-3 -10 -5 -4 -5 12 0 17 2 24 5 18 2 -7 2 -21 0 -30z"/>
<path d="M7096 3598 c2 -18 18 -159 34 -313 34 -320 38 -347 49 -341 4 3 -10
157 -30 343 -44 394 -37 343 -48 343 -6 0 -8 -15 -5 -32z"/>
<path d="M5058 3236 c-113 -70 -237 -121 -373 -155 l-110 -28 1 -37 c2 -165 2
-166 32 -166 15 0 53 6 84 14 l57 13 5 -61 c22 -254 30 -327 52 -446 41 -224
121 -524 131 -493 3 7 -2 34 -11 60 -8 27 -24 84 -34 128 -37 149 -37 135 0
135 l33 0 37 -148 c20 -81 42 -160 48 -177 22 -53 22 -10 0 73 -25 102 -25
102 8 102 37 0 72 10 72 21 0 8 -24 6 -87 -7 -18 -3 -23 3 -33 49 -6 28 -14
59 -16 68 -4 13 6 18 43 25 l48 8 -50 6 c-47 5 -50 7 -50 34 l0 30 140 17 c78
10 152 23 165 29 30 12 -19 9 -199 -15 -63 -8 -116 -14 -118 -11 -2 2 -7 20
-10 40 -6 35 -5 36 28 36 19 0 41 5 49 10 11 7 0 10 -37 10 -29 0 -53 3 -53 8
0 4 -7 50 -15 102 -23 152 -30 140 73 141 48 0 105 4 127 8 30 7 8 9 -87 10
-149 1 -136 -12 -140 144 l-3 98 89 35 c93 36 205 92 244 122 l24 18 -17 65
c-9 35 -21 81 -26 102 -5 20 -15 37 -22 36 -7 0 -51 -24 -99 -53z m115 -33 c9
-38 19 -78 23 -89 5 -20 -7 -28 -118 -82 -67 -34 -171 -77 -229 -96 -103 -34
-235 -64 -243 -55 -2 2 -7 38 -11 80 l-7 77 44 7 c122 20 344 112 468 194 25
16 48 30 51 30 3 1 13 -29 22 -66z m-333 -317 c0 -69 36 -432 46 -468 4 -13 0
-18 -15 -18 -11 0 -23 -4 -26 -10 -3 -6 5 -10 19 -10 27 0 30 -5 45 -94 15
-80 15 -78 -21 -74 l-33 3 -17 90 c-21 112 -45 314 -56 464 -7 108 -7 114 13
121 30 13 45 12 45 -4z"/>
<path d="M2338 3107 c-107 -18 -118 -22 -118 -41 0 -34 54 -138 99 -187 48
-55 133 -112 158 -107 12 2 3 13 -34 36 -71 46 -139 121 -173 194 -16 34 -28
63 -27 64 4 4 239 35 241 32 39 -89 99 -157 171 -194 30 -16 55 -32 55 -35 0
-3 -47 -20 -105 -38 -58 -17 -105 -36 -105 -42 0 -13 35 -6 173 38 59 18 107
37 107 42 0 5 -26 18 -59 30 -91 33 -211 154 -211 213 0 22 -15 22 -172 -5z"/>
<path d="M5255 3064 c-98 -36 -86 -46 17 -14 34 11 66 20 71 20 4 0 7 -15 7
-34 0 -30 -4 -36 -40 -50 -62 -25 -186 -55 -279 -68 -107 -14 -135 -33 -36
-23 81 7 205 35 289 64 33 12 61 21 63 21 2 0 3 -15 1 -32 -3 -32 -5 -34 -93
-60 l-90 -28 90 2 90 3 3 -29 c2 -16 -1 -33 -6 -38 -5 -5 -82 -19 -171 -32
-158 -23 -209 -36 -140 -36 42 0 296 37 309 45 12 7 17 -17 25 -112 4 -46 8
-86 9 -90 1 -10 -136 -41 -185 -42 -19 -1 -44 -8 -55 -16 -18 -14 -18 -14 7
-15 27 0 190 26 221 36 12 4 19 -2 22 -18 51 -254 108 -458 127 -458 13 0 12
1 -21 108 -53 175 -110 512 -110 658 0 52 -3 64 -16 64 -14 0 -14 1 0 16 12
12 16 37 16 105 0 105 7 102 -125 53z"/>
<path d="M6759 2947 c-37 -13 -85 -35 -107 -50 -41 -27 -80 -83 -66 -95 4 -4
9 -1 11 6 11 31 58 73 106 95 101 48 200 55 397 30 76 -10 33 14 -47 26 -117
18 -219 14 -294 -12z"/>
<path d="M1737 2916 c-10 -24 -33 -61 -52 -83 -34 -40 -138 -103 -171 -103
-55 -1 -49 -16 46 -134 51 -64 96 -116 100 -116 18 0 131 77 173 118 50 48
107 135 107 162 0 9 -42 57 -92 107 l-93 93 -18 -44z m110 -76 l71 -75 -19
-36 c-40 -78 -185 -209 -231 -209 -8 0 -48 39 -88 87 -70 86 -71 88 -48 97
119 49 179 98 214 174 10 23 21 40 25 39 3 -1 37 -36 76 -77z"/>
<path d="M6905 2822 c-143 -59 -257 -111 -255 -117 6 -13 -16 -21 277 98 140
56 253 108 253 115 0 6 -3 12 -7 11 -5 0 -125 -49 -268 -107z"/>
<path d="M7168 2883 c-29 -28 -59 -48 -66 -46 -18 7 -61 -35 -78 -74 -8 -18
-14 -52 -13 -75 l1 -43 8 42 c10 49 32 94 56 114 16 13 16 12 0 -19 -10 -19
-15 -36 -12 -40 3 -3 7 -3 9 -1 82 104 121 148 134 153 13 5 13 2 -2 -21 -10
-16 -31 -45 -48 -66 -37 -48 -27 -62 13 -16 47 55 77 116 63 130 -9 9 -24 -1
-65 -38z"/>
<path d="M7213 2816 c-54 -75 -60 -86 -44 -86 13 0 104 136 100 149 -2 5 -28
-23 -56 -63z"/>
<path d="M7258 2822 c-15 -26 -38 -64 -50 -84 -31 -50 -16 -58 35 -18 70 55
72 56 49 23 -13 -18 -46 -53 -75 -78 -48 -42 -55 -45 -108 -45 -31 0 -70 -3
-86 -6 l-29 -6 0 -111 c0 -142 -21 -200 -99 -284 -30 -32 -55 -61 -55 -65 0
-15 37 6 78 46 79 74 115 180 111 318 l-2 73 99 0 99 0 3 -70 c4 -96 -14 -224
-43 -301 -44 -117 -138 -230 -232 -278 -38 -19 -38 -21 -18 -141 20 -115 23
-125 41 -125 18 0 18 -1 -6 106 -11 49 -20 96 -20 106 0 9 20 28 43 41 56 33
154 139 190 204 47 87 67 189 67 337 0 99 -4 137 -15 152 -13 19 -11 24 22 55
39 37 93 107 93 121 0 16 -37 8 -70 -17 -19 -14 -35 -25 -37 -25 -2 0 10 24
27 53 31 56 35 67 23 67 -5 0 -20 -22 -35 -48z"/>
<path d="M3862 2800 c-45 -10 -98 -63 -118 -117 -13 -34 -16 -64 -11 -137 l5
-93 -43 -36 c-79 -66 -86 -161 -20 -268 39 -63 45 -102 26 -152 -45 -117 47
-227 189 -227 68 0 120 19 148 55 14 17 25 21 55 17 24 -3 46 2 63 13 14 9 27
15 28 13 1 -2 8 -11 15 -20 11 -15 8 -23 -22 -60 -38 -48 -58 -84 -76 -141
-11 -33 -10 -43 9 -83 l22 -45 -57 -217 c-116 -437 -104 -404 -134 -397 -14 3
-74 12 -134 19 -143 19 -197 4 -197 -54 0 -48 55 -78 215 -120 50 -13 91 -24
93 -26 2 -1 -19 -88 -47 -193 -28 -105 -51 -197 -51 -205 0 -17 31 -27 157
-53 78 -16 82 -19 77 -40 -13 -50 12 -79 117 -133 54 -29 99 -56 99 -61 0 -18
-237 -1 -307 22 -48 15 -56 31 -54 113 1 41 -3 77 -8 81 -18 11 -31 -33 -31
-103 0 -61 3 -72 25 -95 30 -29 96 -43 250 -53 194 -12 209 40 35 119 -90 41
-114 64 -104 101 4 19 13 26 30 26 27 0 29 -3 12 -30 -20 -31 -1 -35 32 -6 25
20 42 26 80 26 l48 0 12 50 c7 27 16 47 21 44 5 -3 37 4 72 15 73 24 195 46
204 37 4 -4 -2 -46 -13 -94 -10 -48 -18 -96 -16 -107 1 -11 23 -47 47 -80 50
-67 53 -75 26 -75 -24 0 -151 134 -176 185 -10 22 -19 61 -19 88 0 26 -3 47
-8 47 -20 0 -7 -107 18 -159 32 -64 129 -167 166 -176 69 -17 75 20 18 96 -51
68 -55 84 -36 150 8 30 17 72 19 94 4 40 5 40 53 47 26 4 49 6 49 5 5 -15 61
-134 67 -141 4 -5 48 6 99 24 64 23 94 30 97 22 2 -6 12 -22 22 -34 18 -22 25
-23 162 -23 173 0 181 -9 63 -71 -97 -52 -200 -87 -246 -82 -31 3 -37 9 -64
63 -29 58 -42 75 -57 75 -29 0 28 -130 67 -156 51 -33 198 6 335 89 68 41 87
68 65 91 -27 26 -63 30 -179 16 l-109 -13 -24 27 c-13 15 -23 31 -23 35 0 4
17 15 38 25 66 31 142 80 142 92 0 6 -9 33 -21 59 -11 25 -19 48 -17 49 1 1
21 13 43 26 22 13 51 31 64 39 23 15 24 15 18 -4 -92 -294 -96 -312 -77 -300
12 7 123 351 118 365 -2 6 -19 -1 -38 -15 -147 -108 -422 -209 -661 -240 -123
-16 -186 -31 -246 -56 -24 -10 -43 -16 -43 -13 0 10 82 329 85 333 2 2 16 1
30 -3 35 -9 32 -30 -16 -105 -22 -35 -38 -68 -36 -74 4 -14 94 111 102 144 8
32 -16 59 -51 59 -27 0 -28 2 -14 50 l10 35 197 0 c170 0 213 4 302 24 160 35
318 99 443 177 36 23 43 24 96 15 198 -35 195 -35 245 -13 l47 21 66 -29 c69
-31 84 -35 84 -22 0 4 -21 15 -47 24 -63 23 -91 43 -77 57 7 8 27 5 69 -9 63
-22 85 -25 85 -12 0 5 -28 17 -62 28 l-63 20 0 65 c0 35 -4 76 -8 90 -8 23 -3
31 45 69 96 78 119 120 82 151 -13 10 -23 9 -63 -8 l-49 -20 24 35 c27 39 27
41 15 61 -21 33 -93 9 -199 -69 -69 -49 -41 -47 41 4 81 50 137 68 137 44 0
-15 -74 -90 -134 -136 -57 -43 -14 -35 83 16 122 65 164 69 126 15 -18 -25
-121 -106 -147 -116 -16 -6 -16 -9 2 -49 20 -43 24 -89 12 -120 -6 -15 -16
-12 -84 23 -96 48 -104 34 -10 -17 82 -46 78 -42 65 -55 -11 -11 -78 27 -130
74 -13 11 -26 18 -29 14 -8 -8 24 -36 83 -74 24 -16 43 -31 43 -36 0 -15 -56
-29 -99 -23 -79 11 -194 94 -232 167 -23 46 -25 109 -4 149 20 38 32 38 40 0
4 -16 11 -32 16 -35 12 -8 11 2 -1 45 -5 19 -6 38 -1 43 5 5 12 -11 15 -37 10
-63 24 -58 18 5 l-5 52 59 -5 c32 -3 67 -9 77 -13 10 -4 17 -3 17 3 0 15 -57
32 -108 32 l-45 0 5 75 c3 42 2 78 -2 80 -12 7 -20 -34 -20 -102 0 -59 -11
-86 -25 -63 -4 6 -9 44 -12 85 -3 41 -10 75 -14 75 -11 0 -11 -58 0 -125 8
-45 6 -53 -15 -78 -60 -72 -49 -172 30 -255 l31 -34 -30 -23 c-42 -35 -228
-129 -310 -158 -127 -44 -118 -46 -153 31 -144 317 -241 536 -239 538 1 1 31
9 67 18 93 23 207 83 244 129 26 32 32 50 36 105 l5 67 49 33 c60 40 79 41 42
3 -39 -41 -18 -46 55 -16 33 14 68 25 77 23 10 -2 -13 -17 -50 -33 -63 -27
-85 -45 -55 -45 21 0 131 56 146 74 12 15 12 19 1 26 -12 7 -36 2 -120 -25
-22 -7 -23 -6 -12 8 8 9 11 21 7 27 -12 20 -48 10 -108 -30 -60 -40 -60 -41
-81 -21 -39 37 -78 44 -261 51 -99 4 -201 13 -226 19 l-46 13 5 43 c4 37 1 47
-21 69 -14 14 -37 26 -51 26 l-25 0 24 45 c67 127 28 279 -92 355 -39 25 -53
43 -94 128 -32 63 -66 116 -97 147 -74 75 -181 115 -260 95z m308 -360 c0 -16
-7 -20 -37 -22 -87 -3 -98 -2 -101 14 -4 18 17 25 91 27 41 1 47 -2 47 -19z
m109 -15 c140 -71 175 -242 75 -372 -29 -38 -118 -93 -151 -93 -16 0 -23 -6
-23 -19 0 -10 -9 -30 -21 -45 -28 -36 -82 -36 -105 -1 -21 32 -7 72 28 77 26
3 37 36 17 49 -11 6 -10 18 5 63 16 45 24 56 46 61 43 9 64 38 57 80 -5 31 -3
35 16 35 22 1 22 1 3 15 -16 12 -17 18 -8 27 18 18 14 62 -8 86 -11 12 -20 30
-20 42 0 27 29 26 89 -5z m-129 -39 c0 -21 21 -31 31 -15 8 12 11 12 19 -1 29
-45 -5 -87 -61 -75 -20 5 -38 1 -54 -9 -13 -9 -31 -13 -39 -10 -22 9 -41 -33
-27 -62 6 -13 17 -24 24 -24 7 0 23 -10 35 -23 20 -21 20 -24 5 -71 l-16 -48
-12 29 c-7 16 -26 40 -42 54 -25 21 -28 28 -19 48 7 16 6 32 -1 52 -7 17 -7
29 -2 29 19 0 33 49 22 73 -9 19 -8 26 7 35 16 10 19 8 22 -11 2 -12 6 -20 9
-17 4 3 16 -6 28 -20 l21 -25 -6 38 c-4 24 -2 43 6 52 16 19 50 19 50 1z m-25
-126 c-3 -6 1 -13 10 -17 10 -3 21 0 25 7 6 9 11 7 19 -8 15 -28 14 -42 -6
-64 -22 -24 -52 -23 -80 4 -25 23 -30 57 -11 76 14 14 52 16 43 2z m323 -317
c-3 -39 -28 -60 -28 -24 0 27 -17 27 -25 1 -4 -14 -15 -20 -36 -20 -16 0 -51
-11 -78 -24 -51 -26 -71 -22 -71 16 0 26 28 34 44 12 13 -17 14 -17 24 3 7 13
26 23 49 27 21 3 54 14 73 25 49 26 52 25 48 -16z m56 -88 c83 -16 161 -25
228 -25 l103 -1 -49 -25 c-34 -18 -45 -29 -38 -36 14 -14 62 5 93 38 26 27 36
29 91 12 36 -10 88 -51 88 -68 0 -4 -14 -10 -31 -14 -37 -7 -34 -30 4 -34 33
-4 34 -16 5 -59 -23 -33 -50 -51 -55 -36 -20 57 -94 116 -117 93 -8 -8 -3 -18
20 -38 34 -29 54 -61 54 -86 0 -18 -117 -57 -225 -75 -38 -7 -80 -14 -92 -17
-18 -3 -22 1 -25 23 -3 29 -32 40 -34 13 -1 -8 -2 -21 -3 -27 -2 -25 -195 -6
-286 28 -58 21 -101 60 -92 83 3 8 29 23 56 33 28 10 51 21 51 26 0 17 -34 19
-67 3 -20 -9 -37 -15 -40 -13 -8 9 20 64 57 113 57 76 130 115 130 70 0 -7 11
-23 25 -36 29 -27 32 -15 8 29 -16 28 -16 33 -3 41 8 5 16 10 17 10 1 0 58
-11 127 -25z m-1 -951 c16 -42 26 -78 23 -81 -3 -3 -26 -2 -52 2 -41 6 -45 9
-40 28 3 12 11 46 17 75 7 28 15 52 18 52 3 0 19 -34 34 -76z m-625 -19 c40
-7 74 -14 77 -16 5 -6 -16 -92 -25 -102 -9 -10 -183 35 -247 63 -47 20 -57 50
-25 70 19 11 100 6 220 -15z"/>
<path d="M4295 2253 c5 -17 2 -23 -9 -23 -9 0 -16 -4 -16 -10 0 -16 40 -11 47
6 3 9 -2 23 -12 32 -16 16 -17 16 -10 -5z"/>
<path d="M4500 1790 c-22 -13 -4 -25 35 -22 40 4 89 -19 111 -53 19 -30 34
-32 34 -6 0 23 -42 68 -75 81 -33 12 -85 13 -105 0z"/>
<path d="M4260 1762 c0 -4 13 -19 29 -33 17 -14 34 -44 41 -67 6 -23 15 -42
21 -42 37 0 -1 104 -50 133 -32 19 -41 21 -41 9z"/>
<path d="M4466 1634 c-16 -21 -49 -45 -77 -56 -54 -23 -65 -48 -21 -48 55 0
142 75 142 123 0 26 -12 21 -44 -19z"/>
<path d="M4595 1650 c-11 -18 25 -61 68 -81 52 -23 117 -26 117 -4 0 9 -9 15
-25 15 -32 0 -93 31 -119 59 -21 23 -32 26 -41 11z"/>
<path d="M3082 2674 c-24 -48 -63 -116 -88 -151 -47 -70 -52 -83 -30 -83 25 0
27 -17 10 -70 -13 -41 -15 -59 -6 -86 10 -33 7 -39 -38 -107 -57 -85 -184
-211 -285 -282 -38 -27 -73 -54 -77 -60 -4 -5 -8 -41 -8 -78 l0 -68 -33 25
c-49 37 -73 34 -88 -11 -6 -21 -14 -42 -17 -47 -2 -4 -35 23 -73 60 -65 64
-71 68 -111 66 -232 -12 -369 -131 -355 -307 10 -132 84 -209 228 -235 35 -7
69 -14 75 -15 13 -4 34 -192 34 -313 0 -99 -14 -148 -53 -190 -28 -30 -112
-73 -202 -102 -38 -12 -74 -26 -78 -30 -5 -4 7 -61 26 -126 35 -115 35 -119
16 -132 -30 -21 -40 -47 -54 -144 -8 -50 -16 -93 -20 -96 -21 -21 -75 150 -75
240 0 63 20 97 70 118 26 11 42 30 25 30 -20 0 -88 -45 -102 -67 -44 -67 14
-332 75 -341 29 -4 40 22 51 117 8 77 30 131 51 131 6 0 10 -6 10 -12 1 -30
18 -42 42 -31 13 6 79 32 148 58 225 84 328 152 383 253 32 59 57 135 57 175
0 41 13 33 37 -26 12 -28 69 -164 127 -302 58 -137 109 -251 115 -253 5 -2 46
12 89 31 l80 35 8 -31 c15 -49 32 -53 115 -29 41 12 87 22 103 22 l29 0 -24
-26 c-34 -36 -154 -115 -201 -131 -49 -17 -70 -6 -91 46 -16 39 -33 58 -44 47
-9 -9 26 -92 47 -111 30 -27 72 -22 142 14 162 86 244 191 147 191 -17 0 -64
-11 -106 -25 -79 -27 -96 -25 -106 16 -4 16 8 26 74 59 43 22 79 43 79 47 0 3
-34 99 -76 212 -76 204 -209 524 -299 716 -43 93 -45 100 -29 112 16 12 16 13
-5 13 -12 0 -56 -10 -97 -22 -45 -13 -78 -18 -83 -12 -12 13 -121 344 -113
344 3 0 16 -9 28 -21 34 -31 44 -16 44 65 l0 72 72 50 c103 70 235 200 291
286 l49 74 76 -79 c43 -44 76 -84 74 -90 -2 -5 -19 -34 -39 -64 l-35 -53 -50
45 c-70 63 -83 56 -19 -9 l54 -55 -32 -40 c-64 -81 -175 -175 -289 -245 l-42
-26 50 -100 c28 -55 55 -100 60 -100 18 0 11 22 -35 106 l-44 83 52 32 c137
84 297 250 367 380 l32 61 -53 56 c-30 31 -59 61 -64 66 -62 64 -80 113 -64
170 5 18 21 43 35 57 l27 24 -7 -30 c-16 -64 -19 -108 -7 -101 6 4 11 15 11
24 1 42 16 44 71 6 30 -20 56 -38 58 -40 2 -2 -15 -29 -39 -60 -23 -30 -39
-58 -36 -61 8 -9 43 25 68 65 16 26 25 32 43 28 19 -5 31 7 80 77 74 104 139
223 130 238 -16 25 -220 144 -280 163 -18 5 -27 -6 -63 -80z m143 13 c143 -78
167 -95 159 -120 -8 -29 -45 -95 -106 -189 l-49 -76 -80 56 c-46 33 -79 63
-79 74 0 23 -16 31 -37 20 -19 -10 -43 -6 -43 8 0 4 19 36 43 71 23 35 56 94
72 131 17 37 32 68 35 68 3 0 41 -20 85 -43z m-883 -999 c75 -83 90 -84 108
-9 7 28 15 51 18 51 7 0 127 -365 127 -384 0 -11 -6 -12 -152 -44 l-91 -19 -5
23 c-3 15 1 24 9 24 19 0 28 20 15 33 -7 7 -6 14 6 22 18 14 10 35 -14 35 -13
0 -13 3 -2 16 10 13 10 17 -2 25 -15 10 -92 7 -121 -6 -16 -6 -18 -1 -18 44 0
46 -3 53 -25 61 -47 18 -105 -25 -105 -78 0 -13 -11 -38 -25 -56 -23 -31 -45
-96 -31 -96 3 0 14 17 25 38 24 47 56 78 66 62 4 -6 18 -15 30 -20 22 -8 23
-11 10 -37 -21 -45 -27 -71 -16 -77 6 -4 15 12 21 35 6 22 26 56 43 76 27 29
41 36 82 39 55 4 52 1 -12 -16 -56 -14 -57 -35 -2 -27 66 9 81 -5 20 -17 -75
-15 -82 -39 -9 -31 39 5 49 4 38 -4 -8 -6 -25 -11 -37 -11 -61 0 -71 -28 -10
-32 l42 -3 -40 -13 c-76 -25 -155 -26 -219 -3 -72 25 -102 51 -132 116 -40 84
-28 174 34 245 19 22 48 48 66 57 48 26 146 51 198 52 45 1 48 -1 110 -71z"/>
<path d="M2470 1640 c0 -5 5 -10 10 -10 6 0 10 5 10 10 0 6 -4 10 -10 10 -5 0
-10 -4 -10 -10z"/>
<path d="M2490 1560 c0 -5 5 -10 10 -10 6 0 10 5 10 10 0 6 -4 10 -10 10 -5 0
-10 -4 -10 -10z"/>
<path d="M2520 1470 c0 -5 5 -10 10 -10 6 0 10 5 10 10 0 6 -4 10 -10 10 -5 0
-10 -4 -10 -10z"/>
<path d="M2090 1365 c0 -10 7 -15 18 -13 21 4 19 22 -2 26 -10 2 -16 -3 -16
-13z"/>
<path d="M5900 2746 c0 -17 104 -116 122 -116 7 1 -11 23 -41 51 -29 27 -51
52 -49 55 3 2 42 -23 87 -56 88 -65 120 -75 76 -22 -34 40 -14 42 26 3 24 -25
29 -37 29 -81 0 -32 4 -49 10 -45 17 10 11 88 -9 121 -10 16 -34 38 -52 47
-29 14 -36 14 -48 2 -12 -12 -21 -9 -65 21 -53 36 -86 43 -86 20z"/>
<path d="M5880 2712 c0 -16 102 -122 117 -122 10 0 -6 24 -43 64 -57 62 -74
75 -74 58z"/>
<path d="M5870 2670 c0 -20 97 -116 107 -107 4 4 -19 33 -50 65 -33 33 -57 50
-57 42z"/>
<path d="M5850 2644 c0 -20 50 -88 93 -126 40 -36 41 -37 17 -38 -49 -1 -51
-9 -31 -105 33 -158 82 -261 171 -358 l63 -68 -14 -77 c-21 -116 -17 -264 10
-334 28 -71 86 -131 154 -157 l52 -19 -3 -54 c-5 -71 -44 -219 -86 -322 -32
-79 -182 -346 -234 -414 l-25 -33 23 -23 22 -24 -37 -76 c-46 -93 -43 -122 21
-200 54 -67 181 -176 205 -176 53 0 49 67 -11 171 -42 70 -52 119 -33 152 7
13 23 4 93 -48 l84 -63 44 76 c51 89 170 327 195 391 10 24 20 41 23 39 2 -3
15 -103 29 -222 13 -119 27 -222 31 -228 5 -7 40 -9 114 -4 l107 6 7 -39 c8
-54 46 -82 148 -114 93 -29 149 -64 126 -78 -19 -13 -300 -11 -336 2 -33 11
-52 49 -52 100 0 36 -17 79 -31 79 -14 0 -1 -125 17 -161 22 -45 63 -54 234
-54 164 0 200 8 200 45 0 28 -48 57 -151 90 -101 33 -129 55 -129 101 0 21 5
29 18 29 82 1 229 14 236 21 12 11 -20 189 -104 579 -50 234 -148 655 -166
713 -3 11 0 17 10 17 9 0 16 5 16 10 0 9 -44 7 -107 -6 -53 -10 -284 -4 -368
11 -132 23 -122 15 -114 93 14 117 14 115 -36 135 -130 54 -263 174 -320 291
-36 73 -89 256 -77 267 8 8 202 43 206 38 1 -2 7 -31 14 -64 25 -124 106 -238
206 -291 48 -25 54 -32 59 -66 3 -22 13 -50 22 -64 20 -32 73 -64 104 -64 18
0 22 -4 16 -17 -25 -58 -44 -122 -45 -150 0 -50 18 -39 26 15 8 61 39 129 64
142 33 18 23 27 -41 39 -70 14 -116 50 -125 99 -6 32 -6 32 27 26 81 -14 156
-49 188 -88 17 -20 31 -21 31 -2 0 20 -56 65 -107 87 -35 15 -42 23 -45 51 -3
30 -6 33 -34 30 -67 -6 -89 79 -27 108 18 8 33 20 33 25 0 17 -60 139 -87 173
-14 18 -23 36 -20 38 3 3 36 10 74 16 37 6 91 16 118 23 l50 11 41 -45 c41
-45 41 -45 20 -62 -30 -25 -6 -49 48 -49 35 0 44 -4 59 -29 37 -64 16 -142
-63 -225 -27 -29 -50 -60 -50 -69 0 -19 34 -23 74 -7 21 7 26 6 26 -5 0 -22
-59 -84 -86 -91 -13 -3 -24 -9 -25 -13 0 -3 -2 -30 -3 -59 -3 -64 -25 -97 -86
-131 -55 -31 -37 -40 21 -11 l42 22 21 -26 c27 -34 80 -50 97 -30 23 28 23
116 0 162 -11 22 -25 43 -31 47 -5 3 8 23 29 43 48 46 60 92 37 146 -15 36
-15 40 4 66 10 15 24 47 29 72 17 76 1 109 -107 220 -94 96 -98 99 -127 89
-16 -6 -67 -15 -112 -20 -96 -12 -151 -37 -188 -85 -31 -41 -65 -125 -65 -162
0 -69 -57 60 -75 169 -7 42 -8 42 -102 26 l-63 -11 -55 42 c-30 23 -55 45 -55
49 -1 12 -59 76 -60 65z m915 -764 c17 -37 18 -130 2 -146 -8 -8 -67 47 -67
62 0 6 7 25 15 40 8 16 15 41 15 57 0 38 14 34 35 -13z m-583 -1539 c-4 -56
-1 -67 42 -145 49 -89 59 -136 29 -136 -26 0 -209 192 -222 233 -13 38 -6 64
35 135 l25 43 47 -35 47 -35 -3 -60z"/>
<path d="M1980 2621 c-17 -33 -12 -96 10 -122 20 -24 20 -24 35 -5 29 38 14
146 -20 146 -8 0 -19 -9 -25 -19z"/>
<path d="M2235 2616 c-16 -7 -66 -42 -110 -76 -44 -34 -115 -80 -158 -101
-134 -68 -187 -132 -187 -227 0 -125 88 -237 182 -232 147 7 164 5 210 -35 91
-78 187 -100 260 -59 91 53 102 208 26 358 l-20 39 35 32 c89 81 69 211 -45
287 -34 23 -52 28 -102 28 -34 -1 -74 -7 -91 -14z m183 -346 c48 -90 63 -141
63 -219 1 -100 -42 -151 -126 -151 -54 0 -94 19 -150 69 -76 67 -105 110 -105
152 0 21 -7 59 -16 85 -8 25 -14 47 -12 49 2 1 18 5 36 8 32 7 32 6 16 -18 -8
-13 -14 -32 -12 -42 4 -15 7 -13 18 9 7 16 29 33 52 43 21 8 36 20 33 25 -3 6
-4 10 -2 10 3 0 20 6 38 14 l34 14 0 -61 c0 -63 20 -108 54 -122 25 -10 24 3
-3 32 -29 30 -28 64 0 93 13 13 16 13 25 -2 12 -22 38 -23 45 -3 8 19 -13 45
-36 45 -9 0 -29 -9 -44 -21 -30 -24 -32 -20 -9 24 18 36 45 59 55 49 3 -4 24
-41 46 -82z m-308 -262 c0 -17 -45 -7 -67 14 -22 21 -30 57 -16 72 7 7 82 -71
83 -86z"/>
<path d="M2197 2202 c-22 -24 -39 -73 -32 -91 5 -11 11 -5 20 23 19 54 30 63
53 43 17 -16 20 -16 32 -2 30 36 -41 63 -73 27z"/>
<path d="M2390 2065 c-7 -8 -18 -15 -24 -15 -19 0 -35 -21 -29 -37 3 -8 17
-19 30 -24 46 -17 86 28 63 71 -13 24 -23 25 -40 5z"/>
<path d="M7067 2534 c-4 -4 -7 -14 -7 -21 0 -11 15 -13 68 -11 52 2 67 6 67
18 0 11 -15 16 -60 18 -34 2 -64 0 -68 -4z"/>
<path d="M6487 2496 l-27 -12 35 -34 c36 -34 62 -35 31 -1 -17 18 -16 19 3 26
25 8 28 35 4 34 -10 0 -30 -6 -46 -13z"/>
<path d="M7057 2423 c-4 -3 -7 -12 -7 -20 0 -10 19 -13 75 -13 57 0 75 3 75
14 0 7 -10 16 -22 20 -31 8 -113 8 -121 -1z"/>
<path d="M6055 2405 c-5 -2 -22 -6 -37 -9 -17 -4 -28 -13 -28 -23 0 -13 9 -15
58 -10 72 8 92 15 92 33 0 10 -12 14 -37 13 -21 0 -42 -2 -48 -4z"/>
<path d="M6082 2299 c-51 -10 -62 -16 -62 -34 0 -22 12 -24 75 -11 50 10 61
15 63 34 4 24 -4 26 -76 11z"/>
<path d="M7025 2290 c-10 -16 17 -21 80 -18 36 2 60 8 63 16 5 15 -133 17
-143 2z"/>
<path d="M6122 2200 c-43 -10 -60 -26 -45 -41 13 -13 124 7 135 24 16 27 -21
34 -90 17z"/>
<path d="M6943 2183 c-7 -2 -13 -11 -13 -19 0 -12 16 -14 87 -12 74 3 88 6 91
21 3 15 -5 17 -75 16 -43 0 -84 -3 -90 -6z"/>
<path d="M5200 2155 c-158 -28 -183 -36 -97 -29 82 6 218 32 232 45 11 11 20
12 -135 -16z"/>
<path d="M6205 2116 c-43 -8 -61 -16 -63 -29 -3 -14 4 -17 35 -16 51 0 108 21
108 38 0 19 -10 20 -80 7z"/>
<path d="M3020 2081 c0 -12 29 -35 36 -28 11 10 -5 37 -21 37 -8 0 -15 -4 -15
-9z"/>
<path d="M1410 2038 c-17 -58 -65 -152 -106 -210 l-34 -48 38 -23 c20 -13 72
-43 115 -66 l77 -43 20 24 c46 55 130 241 130 288 0 12 -30 32 -94 63 -136 65
-130 65 -146 15z m212 -76 c12 -11 -37 -138 -82 -213 l-41 -70 -52 30 c-29 16
-71 40 -94 53 l-41 24 42 67 c23 37 52 96 65 131 l22 64 87 -40 c48 -22 90
-43 94 -46z"/>
<path d="M5543 2051 c-4 -18 -7 -18 -39 -5 -63 26 -107 11 -72 -24 9 -9 6 -12
-13 -12 -33 0 -41 -8 -28 -31 8 -16 6 -19 -11 -19 -22 0 -29 -33 -9 -45 6 -5
4 -11 -7 -19 -23 -17 -11 -34 40 -57 78 -35 171 -23 227 31 33 31 39 43 39 77
0 46 -26 85 -70 108 -38 20 -51 19 -57 -4z m70 -25 c58 -54 40 -128 -40 -167
-48 -23 -109 -23 -168 2 -29 12 -29 13 -7 17 13 2 36 -1 52 -7 54 -18 42 8
-16 36 -68 33 -50 43 32 17 30 -9 57 -14 60 -11 3 3 -23 20 -57 38 -49 26 -59
34 -43 37 12 2 50 -8 85 -22 66 -28 79 -30 79 -18 0 4 -35 25 -78 47 -93 48
-73 61 24 16 37 -17 70 -31 75 -31 18 0 8 16 -21 33 -16 10 -30 22 -30 28 0
17 27 9 53 -15z"/>
<path d="M6903 2063 c-53 -4 -66 -15 -39 -30 24 -13 166 -3 166 12 0 13 -33
26 -60 23 -8 -1 -39 -3 -67 -5z"/>
<path d="M6285 2028 c-57 -11 -68 -18 -56 -37 7 -10 22 -12 64 -7 59 8 94 26
83 44 -8 14 -21 14 -91 0z"/>
<path d="M6813 1952 c-7 -4 -9 -13 -4 -20 12 -19 86 -12 86 8 0 17 -61 26 -82
12z"/>
<path d="M6400 1941 c-22 -4 -36 -12 -38 -23 -3 -15 4 -18 40 -18 52 0 92 23
68 40 -16 10 -17 10 -70 1z"/>
<path d="M1778 1873 c12 -2 32 -2 45 0 12 2 2 4 -23 4 -25 0 -35 -2 -22 -4z"/>
<path d="M2452 1868 c-7 -7 -12 -22 -12 -35 0 -18 -5 -23 -28 -23 -15 0 -42 4
-59 9 -36 10 -51 0 -29 -18 22 -19 146 -25 176 -9 28 15 38 52 20 74 -15 17
-52 18 -68 2z"/>
<path d="M6835 1840 c-4 -7 -3 -16 2 -21 10 -10 62 2 65 16 4 14 -59 19 -67 5z"/>
<path d="M1788 1823 c-35 -15 -51 -33 -28 -33 19 0 90 32 90 41 0 12 -18 10
-62 -8z"/>
<path d="M5354 1825 c-18 -15 -18 -15 5 -13 14 2 26 9 29 16 5 17 -10 15 -34
-3z"/>
<path d="M6423 1828 c2 -8 20 -13 42 -13 22 0 40 5 43 13 2 8 -10 12 -43 12
-33 0 -45 -4 -42 -12z"/>
<path d="M7346 1801 c17 -18 144 -59 150 -49 8 13 4 16 -59 38 -60 21 -108 27
-91 11z"/>
<path d="M5263 1769 c-63 -29 -87 -49 -58 -49 21 0 108 45 124 64 18 22 6 19
-66 -15z"/>
<path d="M1825 1757 c-21 -18 -36 -38 -34 -45 2 -7 22 3 48 26 26 22 40 41 34
45 -6 4 -27 -8 -48 -26z"/>
<path d="M5274 1731 c-82 -41 -108 -71 -62 -71 12 0 18 -3 15 -6 -3 -4 -43 -9
-88 -13 -58 -4 -84 -10 -87 -20 -7 -21 149 -6 206 19 48 22 48 40 -1 40 -31 0
-30 1 23 31 96 52 90 69 -6 20z"/>
<path d="M6400 1732 c0 -16 25 -32 50 -32 32 0 41 7 33 26 -5 15 -83 20 -83 6z"/>
<path d="M6590 1716 c0 -9 13 -18 34 -21 45 -9 71 -3 71 15 0 11 -14 16 -52
18 -42 2 -53 0 -53 -12z"/>
<path d="M6812 1713 c6 -32 108 -29 108 2 0 11 -13 15 -56 15 -47 0 -55 -3
-52 -17z"/>
<path d="M7383 1625 c48 -44 67 -54 67 -36 0 14 -85 81 -101 81 -8 -1 8 -21
34 -45z"/>
<path d="M7290 1540 c0 -21 41 -81 51 -74 10 6 -17 58 -38 76 -9 7 -13 7 -13
-2z"/>
<path d="M1351 1461 c-12 -16 -37 -63 -57 -104 l-35 -75 -60 -4 c-69 -5 -97
-22 -151 -94 -60 -77 -138 -239 -138 -283 0 -75 76 -107 129 -53 43 43 69 128
82 265 6 67 16 127 21 132 5 6 37 12 70 15 l62 5 45 89 c32 62 53 92 70 98 23
8 23 8 16 -49 -7 -59 -43 -195 -72 -272 -15 -38 -18 -41 -29 -26 -10 14 -15
14 -33 3 -31 -19 -33 -35 -12 -83 l19 -43 -83 -186 c-124 -275 -162 -373 -214
-555 -26 -91 -53 -167 -59 -169 -18 -6 -15 130 3 219 9 40 29 113 45 162 17
49 28 92 25 95 -3 4 -27 -2 -53 -12 -89 -35 -157 -47 -272 -51 -63 -2 -122 -4
-131 -4 -12 -1 -18 -15 -22 -62 -4 -47 -14 -75 -42 -121 -39 -63 -41 -79 -19
-198 6 -31 5 -33 -9 -20 -17 17 -97 222 -97 248 0 10 25 44 55 76 82 86 68
102 -18 19 -39 -39 -91 -80 -114 -92 -72 -36 -112 -80 -159 -173 -43 -86 -64
-108 -64 -68 0 28 76 231 117 315 49 97 130 217 203 299 70 78 72 102 4 35
-121 -115 -249 -336 -313 -538 -36 -112 -37 -144 -5 -149 18 -3 29 11 64 75
67 126 91 149 202 201 3 2 9 -12 13 -30 11 -53 74 -211 92 -230 17 -19 48 -24
58 -8 3 5 -1 36 -10 69 -21 82 -19 109 12 149 34 45 52 96 53 150 0 41 1 42
28 35 15 -5 70 -7 123 -6 77 1 114 7 183 31 72 23 87 26 83 13 -3 -9 -16 -56
-31 -104 -51 -175 -57 -323 -14 -351 29 -18 43 9 81 151 49 181 109 334 149
383 18 22 36 40 39 40 3 0 9 -60 12 -132 3 -75 17 -194 32 -272 14 -76 24
-144 22 -150 -6 -17 -45 52 -63 109 -8 28 -24 98 -36 158 -22 108 -38 138 -38
70 0 -90 64 -296 108 -345 18 -22 48 -23 55 -4 3 8 -5 79 -19 158 -33 195 -47
346 -42 469 3 95 6 111 42 191 l39 87 20 -27 c30 -39 120 -132 129 -132 16 0
158 143 158 159 -1 9 -21 32 -46 51 -24 19 -74 65 -111 102 l-67 68 27 107
c38 152 36 203 -8 203 -15 0 -32 -11 -44 -29z m56 -348 c16 -21 60 -63 96 -93
37 -30 67 -60 67 -66 0 -7 -30 -37 -66 -68 l-67 -57 -24 23 c-35 32 -111 135
-135 181 -15 30 -17 42 -8 52 10 12 16 10 34 -12 l23 -27 17 52 c10 29 21 52
25 52 4 0 21 -17 38 -37z"/>
<path d="M5544 1348 c-7 -10 20 -38 38 -38 15 0 8 38 -8 44 -21 8 -22 8 -30
-6z"/>
<path d="M5617 1293 c-12 -12 -7 -20 18 -31 33 -15 35 -15 35 3 0 8 -9 19 -19
25 -23 12 -26 12 -34 3z"/>
<path d="M5522 1240 c-15 -18 -32 -29 -45 -27 -25 2 -35 -26 -17 -48 16 -20
44 -19 61 1 10 13 10 17 -2 25 -11 8 -8 15 18 38 17 16 29 32 26 35 -11 10
-17 6 -41 -24z"/>
<path d="M1190 1220 c0 -5 7 -10 15 -10 8 0 15 5 15 10 0 6 -7 10 -15 10 -8 0
-15 -4 -15 -10z"/>
<path d="M26 1163 c11 -48 40 -107 63 -127 25 -22 28 -10 5 22 -8 12 -23 46
-33 74 -19 56 -47 81 -35 31z"/>
<path d="M80 1151 c19 -36 139 -148 210 -195 91 -61 201 -112 287 -132 116
-28 308 -17 329 18 5 8 0 9 -17 4 -13 -4 -67 -10 -119 -13 -78 -4 -112 -1
-180 16 -155 39 -310 131 -441 262 -60 60 -89 77 -69 40z"/>
<path d="M0 1076 c0 -47 132 -177 179 -175 13 0 13 2 -3 12 -43 26 -119 104
-137 139 -19 38 -39 50 -39 24z"/>
<path d="M5447 803 c-42 -104 -103 -255 -136 -336 -66 -160 -65 -157 -52 -157
4 0 32 55 61 123 30 67 56 125 60 129 3 4 26 -20 50 -54 25 -33 76 -86 113
-116 75 -60 86 -78 112 -167 21 -75 40 -98 67 -84 18 10 20 19 16 88 -6 94
-29 150 -106 251 -81 105 -93 126 -117 203 -25 78 -39 80 -21 4 17 -72 55
-142 121 -223 30 -38 64 -93 76 -123 24 -66 38 -181 20 -181 -13 0 -24 24 -46
103 -15 54 -25 68 -129 170 -62 62 -118 126 -125 143 -11 29 -9 40 29 129 89
210 114 285 92 285 -5 0 -43 -84 -85 -187z"/>
<path d="M60 920 c0 -15 64 -59 109 -75 49 -17 111 -20 111 -5 0 6 -16 10 -34
10 -21 0 -65 16 -110 39 -42 22 -76 35 -76 31z"/>
<path d="M181 805 c13 -13 175 -13 188 0 7 7 -25 10 -94 10 -72 0 -101 -3 -94
-10z"/>
<path d="M395 805 c-16 -7 -41 -18 -55 -23 -25 -10 -25 -11 -2 -11 30 -1 92
25 92 38 0 6 -1 11 -2 10 -2 0 -16 -6 -33 -14z"/>
<path d="M5146 83 c-30 -45 -41 -52 -49 -31 -2 7 -8 9 -13 5 -11 -10 9 -42 26
-42 20 0 72 71 68 91 -3 15 -10 10 -32 -23z"/>
</g>
</svg>
